{
  "accessors": [
    {
      "bufferView": 2,
      "componentType": 5126,
      "count": 4827,
      "max": [
        8.6636581420898438,
        23.057790756225586,
        35.914947509765625
      ],
      "min": [
        -8.6636581420898438,
        -9.0992698669433594,
        -0.046907000243663788
      ],
      "type": "VEC3"
    },
    {
      "bufferView": 2,
      "byteOffset": 57924,
      "componentType": 5126,
      "count": 4827,
      "max": [
        0.99996161460876465,
        0.99836897850036621,
        0.99886488914489746
      ],
      "min": [
        -0.99996161460876465,
        -0.99774688482284546,
        -0.99945825338363647
      ],
      "type": "VEC3"
    },
    {
      "bufferView": 3,
      "componentType": 5126,
      "count": 4827,
      "max": [
        0.99991673231124878,
        0.99992173910140991,
        0.99866610765457153,
        1
      ],
      "min": [
        -0.99991673231124878,
        -0.99900811910629272,
        -0.99946069717407227,
        -1
      ],
      "type": "VEC4"
    },
    {
      "bufferView": 1,
      "componentType": 5126,
      "count": 4827,
      "max": [
        0.97892099618911743,
        0.98579400777816772
      ],
      "min": [
        0.013350999914109707,
        0.011796999722719193
      ],
      "type": "VEC2"
    },
    {
      "bufferView": 0,
      "componentType": 5125,
      "count": 23244,
      "max": [
        4826
      ],
      "min": [
        0
      ],
      "type": "SCALAR"
    }
  ],
  "asset": {
    "extras": {
      "author": "lionkinen (https://sketchfab.com/lionkinen)",
      "license": "CC-BY-4.0 (http://creativecommons.org/licenses/by/4.0/)",
      "source": "https://sketchfab.com/models/62b512c628da4b16ba4a82cb0acdbc62",
      "title": "Green Dragon"
    },
    "generator": "Sketchfab-3.19.6",
    "version": "2.0"
  },
  "bufferViews": [
    {
      "buffer": 0,
      "byteLength": 92976,
      "byteOffset": 0,
      "name": "floatBufferViews",
      "target": 34963
    },
    {
      "buffer": 0,
      "byteLength": 38616,
      "byteOffset": 92976,
      "byteStride": 8,
      "name": "floatBufferViews",
      "target": 34962
    },
    {
      "buffer": 0,
      "byteLength": 115848,
      "byteOffset": 131592,
      "byteStride": 12,
      "name": "floatBufferViews",
      "target": 34962
    },
    {
      "buffer": 0,
      "byteLength": 77232,
      "byteOffset": 247440,
      "byteStride": 16,
      "name": "floatBufferViews",
      "target": 34962
    }
  ],
  "buffers": [
    {
      "byteLength": 324672,
      "uri": "scene.bin"
    }
  ],
  "images": [
    {
      "uri": "textures/Dragon003blinn1SG_baseColor.png"
    },
    {
      "uri": "textures/Dragon003blinn1SG_normal.png"
    }
  ],
  "materials": [
    {
      "alphaMode": "BLEND",
      "doubleSided": true,
      "emissiveFactor": [
        0,
        0,
        0
      ],
      "name": "Dragon003blinn1SG",
      "normalTexture": {
        "index": 1,
        "scale": 1,
        "texCoord": 0
      },
      "pbrMetallicRoughness": {
        "baseColorFactor": [
          1,
          1,
          1,
          1
        ],
        "baseColorTexture": {
          "index": 0,
          "texCoord": 0
        },
        "metallicFactor": 0,
        "roughnessFactor": 0.59999999999999998
      }
    }
  ],
  "meshes": [
    {
      "primitives": [
        {
          "attributes": {
            "NORMAL": 1,
            "POSITION": 0,
            "TANGENT": 2,
            "TEXCOORD_0": 3
          },
          "indices": 4,
          "material": 0,
          "mode": 4
        }
      ]
    }
  ],
  "nodes": [
    {
      "children": [
        1
      ],
      "name": "RootNode (gltf orientation matrix)",
      "rotation": [
        -0.70710678118654746,
        -0,
        -0,
        0.70710678118654757
      ]
    },
    {
      "children": [
        2
      ],
      "name": "RootNode (model correction matrix)"
    },
    {
      "children": [
        3
      ],
      "name": "Dragon003.obj.cleaner.gles"
    },
    {
      "mesh": 0,
      "name": ""
    }
  ],
  "samplers": [
    {
      "magFilter": 9729,
      "minFilter": 9987,
      "wrapS": 10497,
      "wrapT": 10497
    }
  ],
  "scene": 0,
  "scenes": [
    {
      "name": "OSG_Scene",
      "nodes": [
        0
      ]
    }
  ],
  "textures": [
    {
      "sampler": 0,
      "source": 0
    },
    {
      "sampler": 0,
      "source": 1
    }
  ]
}

